<?xml version="1.0" standalone="no"?>
<!DOCTYPE svg PUBLIC "-//W3C//DTD SVG 20010904//EN"
 "http://www.w3.org/TR/2001/REC-SVG-20010904/DTD/svg10.dtd">
<svg version="1.0" xmlns="http://www.w3.org/2000/svg"
 width="260.000000pt" height="260.000000pt" viewBox="0 0 260.000000 260.000000"
 preserveAspectRatio="xMidYMid meet">
<metadata>
Created by potrace 1.11, written by Peter Selinger 2001-2013
</metadata>
<g transform="translate(0.000000,260.000000) scale(0.100000,-0.100000)"
fill="#000000" stroke="none">
<path d="M797 1963 c-4 -3 -7 -211 -7 -460 0 -485 1 -497 49 -523 33 -17 43
-13 29 13 -14 26 -24 359 -13 433 8 54 16 50 60 -31 37 -70 47 -75 136 -75
106 0 109 3 109 140 0 112 -9 140 -46 140 -11 0 -14 -21 -14 -105 l0 -105 -78
0 -78 0 -60 108 c-48 83 -58 108 -47 112 12 5 15 35 13 170 0 100 -5 169 -12
177 -11 14 -31 17 -41 6z"/>
<path d="M1520 1671 c17 -35 157 -271 165 -279 2 -2 8 5 14 15 8 16 -4 42 -64
144 -77 129 -99 159 -122 159 -10 0 -8 -10 7 -39z"/>
<path d="M2040 1474 c-94 -130 -174 -242 -176 -249 -3 -7 66 -109 153 -227 87
-117 169 -228 181 -246 l23 -32 -165 0 -166 0 -158 213 c-87 116 -240 327
-341 467 -101 140 -192 264 -202 275 -18 18 -19 19 -19 1 0 -23 27 -68 110
-178 36 -48 94 -129 130 -180 36 -50 92 -128 125 -172 84 -112 98 -136 83
-136 -7 -1 1 -8 17 -17 17 -8 32 -17 34 -19 2 -1 -38 -59 -89 -128 l-91 -125
-165 -3 -164 -3 0 107 c0 96 -2 108 -19 118 -38 20 -41 13 -41 -106 l0 -116
-147 4 c-137 3 -152 5 -208 31 -97 45 -181 141 -216 247 -6 17 -7 11 -3 -19
11 -80 59 -167 123 -225 89 -81 165 -105 325 -107 157 -1 152 -2 171 17 15 15
18 15 36 -2 19 -17 37 -19 177 -16 87 1 166 7 177 12 11 6 56 60 99 120 43 60
83 107 87 105 4 -3 44 -55 89 -115 45 -60 89 -111 99 -114 9 -3 87 -6 173 -8
234 -4 236 2 71 224 -184 248 -210 283 -217 295 -4 7 7 33 26 59 18 26 42 59
53 74 11 16 58 81 104 147 47 65 96 131 109 147 34 42 44 73 32 97 -24 45 -46
23 -220 -217z"/>
<path d="M378 1364 c6 -34 22 -43 85 -49 l57 -6 0 41 0 41 -73 -2 c-71 -2 -74
-3 -69 -25z"/>
<path d="M1570 1026 c0 -2 7 -7 16 -10 8 -3 12 -2 9 4 -6 10 -25 14 -25 6z"/>
</g>
</svg>
