<?xml version="1.0" standalone="no"?>
<!DOCTYPE svg PUBLIC "-//W3C//DTD SVG 20010904//EN"
 "http://www.w3.org/TR/2001/REC-SVG-20010904/DTD/svg10.dtd">
<svg version="1.0" xmlns="http://www.w3.org/2000/svg"
 width="800.000000pt" height="800.000000pt" viewBox="0 0 800.000000 800.000000"
 preserveAspectRatio="xMidYMid meet">
<metadata>
Created by potrace 1.11, written by Peter Selinger 2001-2013
</metadata>
<g transform="translate(0.000000,800.000000) scale(0.100000,-0.100000)"
fill="#000000" stroke="none">
<path d="M0 4000 l0 -4000 4000 0 4000 0 0 4000 0 4000 -4000 0 -4000 0 0
-4000z m6330 2473 c0 -9 -4 -80 -10 -157 -46 -650 -277 -1266 -635 -1692 -92
-110 -402 -410 -520 -504 -21 -16 -61 -51 -89 -77 -29 -27 -119 -104 -201
-173 -82 -69 -167 -141 -189 -161 -23 -19 -90 -75 -151 -124 -60 -49 -112 -92
-115 -95 -3 -3 -25 -21 -50 -40 -25 -19 -70 -56 -100 -82 l-55 -49 4 -408 3
-409 -128 -102 c-71 -56 -138 -109 -149 -119 -11 -9 -38 -29 -60 -46 -22 -16
-47 -35 -55 -42 -8 -7 -52 -42 -98 -78 -92 -72 -114 -74 -125 -13 -3 18 -15
76 -27 128 -11 52 -25 118 -30 145 -5 28 -25 120 -43 205 l-32 155 -46 8 c-42
8 -54 4 -179 -52 -74 -34 -144 -61 -157 -61 -34 0 -122 42 -183 89 -149 112
-393 384 -435 485 -21 50 -19 68 16 144 97 206 97 205 77 258 -11 31 -16 33
-92 49 -112 22 -138 28 -331 70 -93 21 -185 40 -204 44 -59 11 -61 31 -10 98
24 32 47 60 50 63 3 3 37 46 75 95 156 203 211 271 248 312 l39 43 401 0 402
0 80 96 c43 53 90 111 104 129 50 65 412 494 520 615 32 36 73 83 91 105 19
23 112 125 208 228 302 326 536 501 891 662 354 161 822 271 1168 274 108 1
122 -1 122 -16z m-4052 -3331 l21 -38 -31 -49 c-119 -191 -188 -440 -191 -690
l-2 -120 145 4 c252 6 480 69 660 185 l55 35 35 -21 c19 -12 39 -24 43 -28 10
-9 -85 -122 -150 -179 -220 -194 -597 -314 -993 -316 l-105 0 -3 130 c-5 183
29 397 94 595 30 92 117 252 185 339 64 83 179 191 205 191 5 0 20 -17 32 -38z"/>
<path d="M4845 5453 c-91 -24 -200 -116 -236 -198 -73 -164 -20 -350 128 -453
55 -39 150 -64 220 -59 121 9 243 90 301 202 24 45 27 60 27 155 0 91 -3 112
-25 155 -34 70 -90 127 -163 166 -54 29 -73 33 -147 35 -47 2 -94 0 -105 -3z"/>
</g>
</svg>
